<?xml version="1.0" standalone="no"?>
<!DOCTYPE svg PUBLIC "-//W3C//DTD SVG 20010904//EN"
 "http://www.w3.org/TR/2001/REC-SVG-20010904/DTD/svg10.dtd">
<svg version="1.0" xmlns="http://www.w3.org/2000/svg"
 width="500.000000pt" height="500.000000pt" viewBox="0 0 500.000000 500.000000"
 preserveAspectRatio="xMidYMid meet">
<metadata>
Created by potrace 1.15, written by Peter Selinger 2001-2017
</metadata>
<g transform="translate(0.000000,500.000000) scale(0.100000,-0.100000)"
fill="#000000" stroke="none">
<path d="M1370 3010 l0 -240 60 0 60 0 0 240 0 240 -60 0 -60 0 0 -240z"/>
<path d="M1570 3010 l0 -241 153 3 152 3 3 43 3 42 -95 0 -96 0 0 60 0 60 79
0 c73 0 79 2 85 23 15 55 13 57 -79 57 l-85 0 0 55 0 55 90 0 90 0 0 40 0 40
-150 0 -150 0 0 -240z"/>
<path d="M1940 3010 l0 -241 153 3 152 3 3 43 3 42 -95 0 -96 0 0 60 0 59 83
3 82 3 3 38 3 37 -85 0 -86 0 0 55 0 55 90 0 90 0 0 40 0 40 -150 0 -150 0 0
-240z"/>
<path d="M2314 3010 l1 -240 152 0 153 0 0 45 0 45 -95 0 -95 0 0 60 0 60 85
0 85 0 0 40 0 40 -85 0 -85 0 0 55 0 55 89 0 89 0 4 40 4 40 -152 0 -151 0 1
-240z"/>
<path d="M875 3070 c-61 -12 -140 -45 -196 -80 -52 -34 -59 -47 -17 -31 13 5
53 12 88 16 132 14 290 -41 393 -135 32 -29 59 -51 61 -49 4 5 66 203 66 212
0 14 -85 49 -149 63 -71 15 -182 17 -246 4z"/>
<path d="M2967 3039 c-126 -30 -219 -130 -233 -255 -14 -112 32 -185 163 -262
113 -66 135 -89 131 -133 -7 -76 -136 -105 -243 -55 -27 12 -56 30 -64 39 -7
10 -19 17 -25 17 -11 0 -72 -188 -64 -195 14 -12 83 -41 123 -51 174 -46 364
-16 468 75 89 79 119 230 63 325 -29 49 -80 92 -158 132 -110 56 -145 116 -95
162 49 47 155 36 233 -24 30 -23 46 -30 49 -22 2 7 15 53 28 101 l25 89 -46
19 c-104 45 -257 61 -355 38z"/>
<path d="M690 2896 c-110 -30 -177 -82 -220 -170 -42 -84 -56 -185 -41 -278
36 -217 191 -339 431 -340 96 -1 210 22 229 46 12 14 65 215 59 221 -3 3 -32
-9 -66 -26 -104 -54 -197 -50 -267 13 -51 44 -68 100 -63 205 8 171 95 283
238 309 l45 8 -50 12 c-65 16 -238 16 -295 0z"/>
<path d="M1410 2655 c-124 -40 -214 -201 -195 -350 16 -132 135 -203 293 -175
160 27 244 137 245 320 1 97 -26 153 -93 189 -55 31 -180 39 -250 16z m140
-124 c33 -63 -20 -261 -76 -282 -40 -14 -64 15 -64 76 0 66 31 169 61 201 27
29 64 31 79 5z"/>
<path d="M1952 2655 c-40 -6 -77 -16 -81 -21 -5 -5 -13 -43 -20 -84 -6 -41
-30 -151 -52 -243 -23 -92 -39 -170 -37 -172 2 -2 48 -1 103 3 l99 7 23 110
c56 264 52 253 82 263 36 13 61 -2 61 -36 0 -15 -16 -96 -35 -181 -19 -85 -35
-158 -35 -162 0 -8 190 -1 199 7 2 2 20 83 40 181 33 162 38 179 61 190 29 15
63 -2 68 -33 1 -11 -15 -92 -36 -182 -22 -89 -36 -165 -33 -167 4 -2 50 -1
102 2 l96 6 42 202 c48 222 48 245 1 290 -23 22 -42 29 -85 33 -47 4 -65 0
-119 -27 l-64 -31 -30 30 c-24 23 -39 30 -70 30 -46 0 -96 -16 -134 -42 -35
-24 -38 -23 -28 12 8 28 7 30 -18 29 -15 -1 -60 -7 -100 -14z"/>
<path d="M3542 2652 c-105 -38 -178 -146 -189 -282 -13 -157 66 -241 227 -243
194 -2 297 98 308 300 6 116 -15 169 -84 209 -61 36 -185 43 -262 16z m142
-118 c20 -19 20 -70 1 -153 -18 -76 -40 -116 -72 -130 -51 -23 -75 24 -61 119
21 141 81 216 132 164z"/>
<path d="M4141 2651 c-65 -23 -96 -45 -138 -100 -82 -106 -82 -280 -1 -358 48
-46 101 -65 184 -65 105 0 124 12 145 95 16 63 16 68 1 61 -75 -32 -127 -29
-162 8 -58 63 -18 206 67 239 38 14 57 11 96 -15 l36 -25 21 67 c18 63 19 68
3 80 -48 35 -168 42 -252 13z"/>
<path d="M4183 1980 c-13 -5 -23 -15 -23 -21 0 -7 -8 -18 -17 -25 -14 -10 -15
-16 -6 -22 10 -6 10 -17 2 -46 -14 -50 -6 -66 31 -66 30 0 44 24 19 32 -18 6
-2 78 16 78 8 0 15 5 15 10 0 6 4 10 9 10 4 0 12 -32 15 -70 6 -63 5 -74 -15
-101 l-22 -31 24 4 c17 2 33 21 60 70 21 37 47 83 59 103 l22 35 -22 0 c-16 0
-26 -11 -38 -40 -22 -51 -32 -51 -32 0 l0 40 -41 0 c-39 0 -41 1 -35 25 4 14
5 25 4 24 -2 0 -13 -4 -25 -9z"/>
<path d="M1412 1917 c-24 -26 -30 -85 -10 -105 7 -7 29 -12 49 -12 29 0 43 6
58 26 23 29 28 83 9 102 -21 21 -82 14 -106 -11z"/>
<path d="M1559 1869 c-16 -69 -16 -69 6 -69 18 0 24 9 34 56 10 43 16 54 29
52 18 -4 19 -11 7 -70 -6 -34 -5 -38 13 -38 17 0 23 10 33 55 10 44 16 55 32
55 20 0 20 -8 1 -85 -6 -24 -4 -26 17 -23 20 2 25 11 33 55 13 79 12 80 -96
80 l-94 1 -15 -69z"/>
<path d="M1815 1926 c-8 -27 -25 -106 -25 -115 0 -6 9 -11 20 -11 13 0 22 9
26 28 13 60 21 77 39 81 19 3 19 -6 -1 -84 -6 -24 -4 -26 17 -23 19 2 25 12
34 53 7 36 15 51 29 53 17 4 18 0 12 -36 -3 -22 -9 -47 -12 -56 -5 -12 0 -16
18 -16 21 0 25 7 35 55 7 31 10 62 7 69 -7 18 -194 19 -199 2z"/>
<path d="M2607 1920 c-30 -24 -43 -70 -28 -99 9 -16 21 -19 64 -19 l53 1 15
68 16 69 -47 0 c-32 0 -55 -6 -73 -20z"/>
<path d="M2948 1930 c-9 -6 -22 -26 -28 -45 -17 -52 6 -85 59 -85 45 0 69 22
77 72 4 25 1 39 -11 51 -18 19 -70 22 -97 7z"/>
<path d="M3638 1930 c-9 -6 -22 -26 -28 -45 -17 -52 6 -85 59 -85 45 0 69 22
77 72 4 25 1 39 -11 51 -18 19 -70 22 -97 7z"/>
</g>
</svg>
